<svg width="392" height="302" viewBox="0 0 392 302" fill="none" xmlns="http://www.w3.org/2000/svg">
<g filter="url(#filter0_f_7_1602)">
<path d="M108.269 196.059C153.004 196.059 189.269 159.794 189.269 115.059C189.269 70.3235 153.004 34.0586 108.269 34.0586C63.5335 34.0586 27.2686 70.3235 27.2686 115.059C27.2686 159.794 63.5335 196.059 108.269 196.059Z" fill="#FA9E42"/>
</g>
<g filter="url(#filter1_f_7_1602)">
<path d="M108.269 215.059C163.497 215.059 208.269 170.287 208.269 115.059C208.269 59.8301 163.497 15.0586 108.269 15.0586C53.0401 15.0586 8.26855 59.8301 8.26855 115.059C8.26855 170.287 53.0401 215.059 108.269 215.059Z" stroke="#FA9E42" stroke-width="10" stroke-linecap="round" stroke-dasharray="1 66"/>
</g>
<g filter="url(#filter2_f_7_1602)">
<path d="M99.669 99.0018C127.954 83.9785 143.954 58.7538 135.406 42.6608C126.858 26.5678 96.9997 25.7005 68.715 40.7238C40.4303 55.747 24.4303 80.9718 32.978 97.0648C41.5257 113.158 71.3843 114.025 99.669 99.0018Z" fill="#F8E36F"/>
</g>
<g filter="url(#filter3_df_7_1602)">
<g filter="url(#filter4_d_7_1602)">
<path d="M235.562 268.824C233.629 268.979 231.676 269.057 229.705 269.059H92.1812C82.7149 269.094 73.3348 267.26 64.579 263.662C55.8232 260.064 47.8639 254.772 41.1577 248.091C34.4516 241.41 29.1305 233.47 25.4997 224.728C21.869 215.986 20 206.612 20 197.146C20 187.68 21.869 178.307 25.4997 169.564C29.1305 160.822 34.4516 152.882 41.1577 146.201C47.8639 139.52 55.8232 134.229 64.579 130.63C73.3348 127.032 82.7149 125.198 92.1812 125.234H143.457C160.081 88.6586 198.368 63.0586 242.941 63.0586C302.768 63.0586 351.268 109.174 351.268 166.059C351.268 222.944 302.768 269.059 242.941 269.059C240.461 269.059 238.001 268.98 235.562 268.824Z" fill="url(#paint0_linear_7_1602)"/>
<path d="M242.941 268.059C250.227 268.059 257.508 267.361 264.582 265.984C271.475 264.643 278.255 262.642 284.734 260.037C291.095 257.479 297.229 254.312 302.968 250.626C308.651 246.976 313.995 242.783 318.851 238.166C323.707 233.549 328.115 228.469 331.953 223.067C335.827 217.615 339.154 211.787 341.842 205.744C344.579 199.591 346.682 193.152 348.09 186.606C349.536 179.889 350.269 172.976 350.269 166.058C350.269 159.14 349.536 152.227 348.09 145.511C346.682 138.965 344.579 132.526 341.842 126.373C339.154 120.33 335.827 114.502 331.953 109.05C328.115 103.648 323.707 98.5681 318.851 93.9514C313.995 89.3338 308.651 85.1415 302.968 81.4908C297.229 77.8047 291.095 74.6387 284.734 72.0807C278.255 69.4751 271.475 67.474 264.582 66.1328C257.508 64.7565 250.227 64.0586 242.941 64.0586C221.57 64.0586 200.931 70.0109 183.255 81.2721C174.734 86.7003 167.078 93.2525 160.498 100.746C153.876 108.288 148.449 116.666 144.367 125.647L144.101 126.233H143.457H92.1812C82.6077 126.233 73.321 128.108 64.5792 131.806C60.3776 133.583 56.325 135.782 52.5341 138.344C48.7789 140.88 45.2477 143.794 42.0385 147.003C38.8293 150.212 35.9157 153.744 33.3788 157.499C30.8177 161.29 28.618 165.342 26.8408 169.544C23.1433 178.286 21.2686 187.572 21.2686 197.146C21.2686 206.72 23.1433 216.006 26.8408 224.748C28.618 228.95 30.8177 233.002 33.3788 236.793C35.9157 240.548 38.8293 244.08 42.0385 247.289C45.2477 250.498 48.7789 253.412 52.5341 255.948C56.325 258.51 60.3776 260.709 64.5792 262.486C73.321 266.184 82.6077 268.059 92.1812 268.059H229.706C231.629 268.059 233.572 267.981 235.483 267.827L235.555 267.821L235.627 267.826C238.046 267.98 240.507 268.059 242.941 268.059ZM242.941 269.059C240.462 269.059 238.001 268.979 235.563 268.824C233.632 268.979 231.676 269.059 229.706 269.059H92.1812C52.4651 269.059 20.2686 236.862 20.2686 197.146C20.2686 157.43 52.4651 125.233 92.1812 125.233H143.457C160.081 88.654 198.366 63.0586 242.941 63.0586C302.769 63.0586 351.269 109.174 351.269 166.058C351.269 222.944 302.769 269.059 242.941 269.059Z" fill="white" fill-opacity="0.49"/>
</g>
</g>
<defs>
<filter id="filter0_f_7_1602" x="23.2686" y="30.0586" width="170" height="170" filterUnits="userSpaceOnUse" color-interpolation-filters="sRGB">
<feFlood flood-opacity="0" result="BackgroundImageFix"/>
<feBlend mode="normal" in="SourceGraphic" in2="BackgroundImageFix" result="shape"/>
<feGaussianBlur stdDeviation="2" result="effect1_foregroundBlur_7_1602"/>
</filter>
<filter id="filter1_f_7_1602" x="1.26855" y="8.05859" width="214" height="214" filterUnits="userSpaceOnUse" color-interpolation-filters="sRGB">
<feFlood flood-opacity="0" result="BackgroundImageFix"/>
<feBlend mode="normal" in="SourceGraphic" in2="BackgroundImageFix" result="shape"/>
<feGaussianBlur stdDeviation="1" result="effect1_foregroundBlur_7_1602"/>
</filter>
<filter id="filter2_f_7_1602" x="0.676758" y="0" width="167.031" height="139.726" filterUnits="userSpaceOnUse" color-interpolation-filters="sRGB">
<feFlood flood-opacity="0" result="BackgroundImageFix"/>
<feBlend mode="normal" in="SourceGraphic" in2="BackgroundImageFix" result="shape"/>
<feGaussianBlur stdDeviation="15" result="effect1_foregroundBlur_7_1602"/>
</filter>
<filter id="filter3_df_7_1602" x="0" y="35.0586" width="391.269" height="266" filterUnits="userSpaceOnUse" color-interpolation-filters="sRGB">
<feFlood flood-opacity="0" result="BackgroundImageFix"/>
<feColorMatrix in="SourceAlpha" type="matrix" values="0 0 0 0 0 0 0 0 0 0 0 0 0 0 0 0 0 0 127 0" result="hardAlpha"/>
<feOffset dx="10" dy="2"/>
<feGaussianBlur stdDeviation="15"/>
<feColorMatrix type="matrix" values="0 0 0 0 0.258824 0 0 0 0 0.627451 0 0 0 0 0.941176 0 0 0 0.596 0"/>
<feBlend mode="normal" in2="BackgroundImageFix" result="effect1_dropShadow_7_1602"/>
<feBlend mode="normal" in="SourceGraphic" in2="effect1_dropShadow_7_1602" result="shape"/>
<feGaussianBlur stdDeviation="2" result="effect2_foregroundBlur_7_1602"/>
</filter>
<filter id="filter4_d_7_1602" x="0" y="35.0586" width="391.269" height="266" filterUnits="userSpaceOnUse" color-interpolation-filters="sRGB">
<feFlood flood-opacity="0" result="BackgroundImageFix"/>
<feColorMatrix in="SourceAlpha" type="matrix" values="0 0 0 0 0 0 0 0 0 0 0 0 0 0 0 0 0 0 127 0" result="hardAlpha"/>
<feOffset dx="10" dy="2"/>
<feGaussianBlur stdDeviation="15"/>
<feColorMatrix type="matrix" values="0 0 0 0 0.501961 0 0 0 0 0.501961 0 0 0 0 0.501961 0 0 0 0.302 0"/>
<feBlend mode="normal" in2="BackgroundImageFix" result="effect1_dropShadow_7_1602"/>
<feBlend mode="normal" in="SourceGraphic" in2="effect1_dropShadow_7_1602" result="shape"/>
</filter>
<linearGradient id="paint0_linear_7_1602" x1="154.164" y1="89.0147" x2="220.206" y2="280.226" gradientUnits="userSpaceOnUse">
<stop stop-color="white" stop-opacity="0.565"/>
<stop offset="1" stop-color="#F7F7F7" stop-opacity="0.204"/>
</linearGradient>
</defs>
</svg>
