<svg width="392" height="318" viewBox="0 0 392 318" fill="none" xmlns="http://www.w3.org/2000/svg">
<g filter="url(#filter0_f_7_1587)">
<path d="M120.932 212.951C114.641 212.952 108.365 212.315 102.202 211.051C90.3076 208.601 79.0143 203.825 68.9713 196.996C55.0578 187.566 43.9414 174.561 36.7905 159.35C29.6396 144.139 26.7183 127.282 28.3334 110.551C29.9486 93.8205 36.0406 77.8339 45.9693 64.2713C55.898 50.7087 69.2967 40.0711 84.7573 33.4762C90.3776 31.0892 96.2214 29.2669 102.202 28.0362C111.935 26.0444 121.923 25.616 131.79 26.7672C129.69 31.3622 128.083 36.1671 126.996 41.1012C125.88 46.1922 125.317 51.3892 125.318 56.6012C125.295 70.9083 129.567 84.8929 137.58 96.7452C142.746 104.39 149.329 110.973 156.973 116.139C160.817 118.735 164.902 120.952 169.173 122.759C178.015 126.501 187.521 128.42 197.121 128.401C202.676 128.405 208.213 127.767 213.621 126.501C212.347 144.073 206.119 160.924 195.66 175.101C192.277 179.688 188.484 183.958 184.327 187.857C167.17 204.001 144.491 212.978 120.932 212.951Z" fill="#713FFD"/>
</g>
<g filter="url(#filter1_f_7_1587)">
<path d="M104.579 106.695C125.441 87.911 131.936 61.1135 119.085 46.8412C106.234 32.569 78.9046 36.2268 58.0426 55.011C37.1806 73.7953 30.6861 100.593 43.5369 114.865C56.3877 129.137 83.7173 125.48 104.579 106.695Z" fill="#A586FC"/>
</g>
<g filter="url(#filter2_f_7_1587)">
<path d="M75.7686 2L78.8686 9.665L87.2686 12.5L78.8686 15.335L75.7686 23L72.6686 15.335L64.2686 12.5L72.6686 9.665L75.7686 2Z" fill="url(#paint0_linear_7_1587)"/>
<g filter="url(#filter3_f_7_1587)">
<path d="M214.769 181L217.334 187.2L224.269 189.5L217.334 191.8L214.769 198L212.204 191.8L205.269 189.5L212.204 187.2L214.769 181Z" fill="url(#paint1_linear_7_1587)"/>
</g>
<path d="M173.277 25.8661L177.587 31.5134L185.268 31.9701L178.846 36.2081L177.939 43.2541L173.629 37.6067L165.948 37.1501L172.371 32.912L173.277 25.8661Z" fill="url(#paint2_linear_7_1587)"/>
<path d="M19.5308 167.063L24.1766 171.439L31.4083 170.717L25.8657 175.418L25.7868 181.799L21.1409 177.424L13.9093 178.146L19.4518 173.445L19.5308 167.063Z" fill="url(#paint3_linear_7_1587)"/>
<path d="M169.214 88.4751L164.105 89.5124L161.081 94.8079L160.685 88.7228L156.547 85.5508L161.657 84.5135L164.68 79.218L165.077 85.3031L169.214 88.4751Z" fill="url(#paint4_linear_7_1587)"/>
</g>
<g filter="url(#filter4_df_7_1587)">
<g filter="url(#filter5_d_7_1587)">
<path d="M235.562 285.765C233.629 285.92 231.676 285.999 229.705 286H92.1812C82.7149 286.035 73.3348 284.201 64.579 280.603C55.8232 277.005 47.8639 271.714 41.1577 265.032C34.4516 258.351 29.1305 250.412 25.4997 241.669C21.869 232.927 20 223.554 20 214.087C20 204.621 21.869 195.248 25.4997 186.506C29.1305 177.763 34.4516 169.824 41.1577 163.143C47.8639 156.461 55.8232 151.17 64.579 147.572C73.3348 143.974 82.7149 142.14 92.1812 142.175H143.457C160.081 105.6 198.368 80 242.941 80C302.768 80 351.268 126.115 351.268 183C351.268 239.885 302.768 286 242.941 286C240.461 286 238.001 285.922 235.562 285.765Z" fill="url(#paint5_linear_7_1587)"/>
<path d="M242.941 285C250.227 285 257.508 284.302 264.582 282.926C271.475 281.585 278.255 279.584 284.734 276.978C291.095 274.42 297.229 271.254 302.968 267.568C308.651 263.917 313.995 259.725 318.851 255.107C323.707 250.49 328.115 245.411 331.953 240.009C335.827 234.557 339.154 228.728 341.842 222.686C344.579 216.532 346.682 210.093 348.09 203.547C349.536 196.831 350.269 189.917 350.269 183C350.269 176.082 349.536 169.169 348.09 162.452C346.682 155.906 344.579 149.467 341.842 143.314C339.154 137.272 335.827 131.443 331.953 125.991C328.115 120.589 323.707 115.51 318.851 110.893C313.995 106.275 308.651 102.083 302.968 98.4323C297.229 94.7461 291.095 91.5801 284.734 89.0221C278.255 86.4165 271.475 84.4154 264.582 83.0742C257.508 81.6979 250.227 81 242.941 81C221.57 81 200.931 86.9523 183.255 98.2135C174.734 103.642 167.078 110.194 160.498 117.688C153.876 125.229 148.449 133.607 144.367 142.588L144.101 143.175H143.457H92.1812C82.6077 143.175 73.321 145.049 64.5792 148.747C60.3776 150.524 56.325 152.724 52.5341 155.285C48.7789 157.822 45.2477 160.735 42.0385 163.945C38.8293 167.154 35.9157 170.685 33.3788 174.44C30.8177 178.231 28.618 182.284 26.8408 186.485C23.1433 195.227 21.2686 204.514 21.2686 214.087C21.2686 223.661 23.1433 232.948 26.8408 241.689C28.618 245.891 30.8177 249.944 33.3788 253.735C35.9157 257.49 38.8293 261.021 42.0385 264.23C45.2477 267.439 48.7789 270.353 52.5341 272.89C56.325 275.451 60.3776 277.651 64.5792 279.428C73.321 283.125 82.6077 285 92.1812 285H229.706C231.629 285 233.572 284.922 235.483 284.768L235.555 284.762L235.627 284.767C238.046 284.922 240.507 285 242.941 285ZM242.941 286C240.462 286 238.001 285.921 235.563 285.765C233.632 285.92 231.676 286 229.706 286H92.1812C52.4651 286 20.2686 253.803 20.2686 214.087C20.2686 174.371 52.4651 142.175 92.1812 142.175H143.457C160.081 105.595 198.366 80 242.941 80C302.769 80 351.269 126.115 351.269 183C351.269 239.885 302.769 286 242.941 286Z" fill="white" fill-opacity="0.5"/>
</g>
</g>
<defs>
<filter id="filter0_f_7_1587" x="23.9004" y="22.1372" width="193.721" height="194.814" filterUnits="userSpaceOnUse" color-interpolation-filters="sRGB">
<feFlood flood-opacity="0" result="BackgroundImageFix"/>
<feBlend mode="normal" in="SourceGraphic" in2="BackgroundImageFix" result="shape"/>
<feGaussianBlur stdDeviation="2" result="effect1_foregroundBlur_7_1587"/>
</filter>
<filter id="filter1_f_7_1587" x="16.9395" y="18.1353" width="128.743" height="125.436" filterUnits="userSpaceOnUse" color-interpolation-filters="sRGB">
<feFlood flood-opacity="0" result="BackgroundImageFix"/>
<feBlend mode="normal" in="SourceGraphic" in2="BackgroundImageFix" result="shape"/>
<feGaussianBlur stdDeviation="10" result="effect1_foregroundBlur_7_1587"/>
</filter>
<filter id="filter2_f_7_1587" x="11.9092" y="0" width="214.359" height="200" filterUnits="userSpaceOnUse" color-interpolation-filters="sRGB">
<feFlood flood-opacity="0" result="BackgroundImageFix"/>
<feBlend mode="normal" in="SourceGraphic" in2="BackgroundImageFix" result="shape"/>
<feGaussianBlur stdDeviation="1" result="effect1_foregroundBlur_7_1587"/>
</filter>
<filter id="filter3_f_7_1587" x="203.269" y="179" width="23" height="21" filterUnits="userSpaceOnUse" color-interpolation-filters="sRGB">
<feFlood flood-opacity="0" result="BackgroundImageFix"/>
<feBlend mode="normal" in="SourceGraphic" in2="BackgroundImageFix" result="shape"/>
<feGaussianBlur stdDeviation="1" result="effect1_foregroundBlur_7_1587"/>
</filter>
<filter id="filter4_df_7_1587" x="0" y="52" width="391.269" height="266" filterUnits="userSpaceOnUse" color-interpolation-filters="sRGB">
<feFlood flood-opacity="0" result="BackgroundImageFix"/>
<feColorMatrix in="SourceAlpha" type="matrix" values="0 0 0 0 0 0 0 0 0 0 0 0 0 0 0 0 0 0 127 0" result="hardAlpha"/>
<feOffset dx="10" dy="2"/>
<feGaussianBlur stdDeviation="15"/>
<feColorMatrix type="matrix" values="0 0 0 0 0.258824 0 0 0 0 0.627451 0 0 0 0 0.941176 0 0 0 0.596 0"/>
<feBlend mode="normal" in2="BackgroundImageFix" result="effect1_dropShadow_7_1587"/>
<feBlend mode="normal" in="SourceGraphic" in2="effect1_dropShadow_7_1587" result="shape"/>
<feGaussianBlur stdDeviation="2" result="effect2_foregroundBlur_7_1587"/>
</filter>
<filter id="filter5_d_7_1587" x="0" y="52" width="391.269" height="266" filterUnits="userSpaceOnUse" color-interpolation-filters="sRGB">
<feFlood flood-opacity="0" result="BackgroundImageFix"/>
<feColorMatrix in="SourceAlpha" type="matrix" values="0 0 0 0 0 0 0 0 0 0 0 0 0 0 0 0 0 0 127 0" result="hardAlpha"/>
<feOffset dx="10" dy="2"/>
<feGaussianBlur stdDeviation="15"/>
<feColorMatrix type="matrix" values="0 0 0 0 0.501961 0 0 0 0 0.501961 0 0 0 0 0.501961 0 0 0 0.302 0"/>
<feBlend mode="normal" in2="BackgroundImageFix" result="effect1_dropShadow_7_1587"/>
<feBlend mode="normal" in="SourceGraphic" in2="effect1_dropShadow_7_1587" result="shape"/>
</filter>
<linearGradient id="paint0_linear_7_1587" x1="75.7686" y1="2" x2="75.7686" y2="23" gradientUnits="userSpaceOnUse">
<stop stop-color="#6B38FC"/>
<stop offset="1" stop-color="#9F7EFD"/>
</linearGradient>
<linearGradient id="paint1_linear_7_1587" x1="214.769" y1="181" x2="214.769" y2="198" gradientUnits="userSpaceOnUse">
<stop stop-color="#6B38FC"/>
<stop offset="1" stop-color="#9F7EFD"/>
</linearGradient>
<linearGradient id="paint2_linear_7_1587" x1="173.277" y1="25.8661" x2="177.939" y2="43.2541" gradientUnits="userSpaceOnUse">
<stop stop-color="#6B38FC"/>
<stop offset="1" stop-color="#9F7EFD"/>
</linearGradient>
<linearGradient id="paint3_linear_7_1587" x1="19.5308" y1="167.063" x2="25.7868" y2="181.799" gradientUnits="userSpaceOnUse">
<stop stop-color="#6B38FC"/>
<stop offset="1" stop-color="#9F7EFD"/>
</linearGradient>
<linearGradient id="paint4_linear_7_1587" x1="169.214" y1="88.4751" x2="156.547" y2="85.5508" gradientUnits="userSpaceOnUse">
<stop stop-color="#6B38FC"/>
<stop offset="1" stop-color="#9F7EFD"/>
</linearGradient>
<linearGradient id="paint5_linear_7_1587" x1="154.164" y1="105.956" x2="220.206" y2="297.168" gradientUnits="userSpaceOnUse">
<stop stop-color="white" stop-opacity="0.596"/>
<stop offset="1" stop-color="#F7F7F7" stop-opacity="0.204"/>
</linearGradient>
</defs>
</svg>
