<svg width="392" height="328" viewBox="0 0 392 328" fill="none" xmlns="http://www.w3.org/2000/svg">
<g filter="url(#filter0_f_7_1024)">
<path d="M126.035 232.835C126.563 233.318 115.495 257.126 109.063 264.526C102.631 271.925 94.7217 275.575 91.3949 272.683C88.0682 269.792 90.5819 261.452 97.0146 254.052C103.447 246.652 125.506 232.351 126.035 232.835Z" fill="#42A0F0"/>
<path d="M98.1599 259.023C98.8061 260.057 101.043 259.825 103.156 258.505C105.27 257.184 106.459 255.275 105.813 254.241C105.166 253.207 102.929 253.439 100.816 254.76C98.7029 256.08 97.5136 257.989 98.1599 259.023Z" fill="white"/>
<path d="M194.035 232.835C194.563 233.318 183.495 257.126 177.063 264.526C170.631 271.925 162.722 275.575 159.395 272.683C156.068 269.792 158.582 261.452 165.015 254.052C171.447 246.652 193.506 232.351 194.035 232.835Z" fill="#42A0F0"/>
<path d="M166.16 259.023C166.806 260.057 169.043 259.825 171.156 258.505C173.27 257.184 174.459 255.275 173.813 254.241C173.166 253.207 170.929 253.439 168.816 254.76C166.703 256.08 165.514 257.989 166.16 259.023Z" fill="white"/>
<path d="M262.035 232.835C262.563 233.318 251.495 257.126 245.063 264.526C238.631 271.925 230.722 275.575 227.395 272.683C224.068 269.792 226.582 261.452 233.015 254.052C239.447 246.652 261.506 232.351 262.035 232.835Z" fill="#42A0F0"/>
<path d="M234.16 259.023C234.806 260.057 237.043 259.825 239.156 258.505C241.27 257.184 242.459 255.275 241.813 254.241C241.166 253.207 238.929 253.439 236.816 254.76C234.703 256.08 233.514 257.989 234.16 259.023Z" fill="white"/>
<path d="M202.035 282.835C202.563 283.318 191.495 307.126 185.063 314.526C178.631 321.925 170.722 325.575 167.395 322.683C164.068 319.792 166.582 311.452 173.015 304.052C179.447 296.652 201.506 282.351 202.035 282.835Z" fill="#42A0F0"/>
<path d="M174.16 309.023C174.806 310.057 177.043 309.825 179.156 308.505C181.27 307.184 182.459 305.275 181.813 304.241C181.166 303.207 178.929 303.439 176.816 304.76C174.703 306.08 173.514 307.989 174.16 309.023Z" fill="white"/>
<path d="M126.035 282.835C126.563 283.318 115.495 307.126 109.063 314.526C102.631 321.925 94.7217 325.575 91.3949 322.683C88.0682 319.792 90.5819 311.452 97.0146 304.052C103.447 296.652 125.506 282.351 126.035 282.835Z" fill="#42A0F0"/>
<path d="M98.1599 309.023C98.8061 310.057 101.043 309.825 103.156 308.505C105.27 307.184 106.459 305.275 105.813 304.241C105.166 303.207 102.929 303.439 100.816 304.76C98.7029 306.08 97.5136 307.989 98.1599 309.023Z" fill="white"/>
</g>
<g filter="url(#filter1_f_7_1024)">
<path d="M115.18 171C155.773 171 188.68 138.093 188.68 97.5C188.68 56.9071 155.773 24 115.18 24C74.5868 24 41.6797 56.9071 41.6797 97.5C41.6797 138.093 74.5868 171 115.18 171Z" fill="#FA9E42"/>
</g>
<g filter="url(#filter2_f_7_1024)">
<path d="M115.18 188C165.161 188 205.68 147.482 205.68 97.5C205.68 47.5182 165.161 7 115.18 7C65.1979 7 24.6797 47.5182 24.6797 97.5C24.6797 147.482 65.1979 188 115.18 188Z" stroke="#FA9E42" stroke-width="10" stroke-linecap="round" stroke-dasharray="1 66"/>
</g>
<g filter="url(#filter3_f_7_1024)">
<path d="M107.392 82.824C133.135 69.151 147.697 46.1934 139.917 31.5468C132.138 16.9002 104.963 16.1109 79.2203 29.7839C53.4778 43.4569 38.9159 66.4144 46.6953 81.061C54.4748 95.7076 81.6497 96.4969 107.392 82.824Z" fill="#F8E36F"/>
</g>
<g filter="url(#filter4_df_7_1024)">
<g filter="url(#filter5_d_7_1024)">
<path d="M235.562 259.765C233.629 259.92 231.676 259.999 229.705 260H92.1812C82.7149 260.035 73.3348 258.201 64.579 254.603C55.8232 251.005 47.8639 245.714 41.1577 239.032C34.4516 232.351 29.1305 224.412 25.4997 215.669C21.869 206.927 20 197.554 20 188.087C20 178.621 21.869 169.248 25.4997 160.506C29.1305 151.763 34.4516 143.824 41.1577 137.143C47.8639 130.461 55.8232 125.17 64.579 121.572C73.3348 117.974 82.7149 116.14 92.1812 116.175H143.457C160.081 79.6 198.368 54 242.941 54C302.768 54 351.268 100.115 351.268 157C351.268 213.885 302.768 260 242.941 260C240.461 260 238.001 259.922 235.562 259.765Z" fill="url(#paint0_linear_7_1024)"/>
<path d="M242.941 259C250.227 259 257.508 258.302 264.582 256.926C271.475 255.585 278.255 253.584 284.734 250.978C291.095 248.42 297.229 245.254 302.968 241.568C308.651 237.917 313.995 233.725 318.851 229.107C323.707 224.49 328.115 219.411 331.953 214.009C335.827 208.557 339.154 202.728 341.842 196.686C344.579 190.532 346.682 184.093 348.09 177.547C349.536 170.831 350.269 163.917 350.269 157C350.269 150.082 349.536 143.169 348.09 136.452C346.682 129.906 344.579 123.467 341.842 117.314C339.154 111.272 335.827 105.443 331.953 99.991C328.115 94.5893 323.707 89.5095 318.851 84.8928C313.995 80.2752 308.651 76.0829 302.968 72.4323C297.229 68.7461 291.095 65.5801 284.734 63.0221C278.255 60.4165 271.475 58.4154 264.582 57.0742C257.508 55.6979 250.227 55 242.941 55C221.57 55 200.931 60.9523 183.255 72.2135C174.734 77.6418 167.078 84.1939 160.498 91.6878C153.876 99.2291 148.449 107.607 144.367 116.588L144.101 117.175H143.457H92.1812C82.6077 117.175 73.321 119.049 64.5792 122.747C60.3776 124.524 56.325 126.724 52.5341 129.285C48.7789 131.822 45.2477 134.735 42.0385 137.945C38.8293 141.154 35.9157 144.685 33.3788 148.44C30.8177 152.231 28.618 156.284 26.8408 160.485C23.1433 169.227 21.2686 178.514 21.2686 188.087C21.2686 197.661 23.1433 206.948 26.8408 215.689C28.618 219.891 30.8177 223.944 33.3788 227.735C35.9157 231.49 38.8293 235.021 42.0385 238.23C45.2477 241.439 48.7789 244.353 52.5341 246.89C56.325 249.451 60.3776 251.651 64.5792 253.428C73.321 257.125 82.6077 259 92.1812 259H229.706C231.629 259 233.572 258.922 235.483 258.768L235.555 258.762L235.627 258.767C238.046 258.922 240.507 259 242.941 259ZM242.941 260C240.462 260 238.001 259.921 235.563 259.765C233.632 259.92 231.676 260 229.706 260H92.1812C52.4651 260 20.2686 227.803 20.2686 188.087C20.2686 148.371 52.4651 116.175 92.1812 116.175H143.457C160.081 79.5954 198.366 54 242.941 54C302.769 54 351.269 100.115 351.269 157C351.269 213.885 302.769 260 242.941 260Z" fill="white" fill-opacity="0.5"/>
</g>
</g>
<defs>
<filter id="filter0_f_7_1024" x="85.9258" y="228.823" width="180.127" height="98.8521" filterUnits="userSpaceOnUse" color-interpolation-filters="sRGB">
<feFlood flood-opacity="0" result="BackgroundImageFix"/>
<feBlend mode="normal" in="SourceGraphic" in2="BackgroundImageFix" result="shape"/>
<feGaussianBlur stdDeviation="2" result="effect1_foregroundBlur_7_1024"/>
</filter>
<filter id="filter1_f_7_1024" x="37.6797" y="20" width="155" height="155" filterUnits="userSpaceOnUse" color-interpolation-filters="sRGB">
<feFlood flood-opacity="0" result="BackgroundImageFix"/>
<feBlend mode="normal" in="SourceGraphic" in2="BackgroundImageFix" result="shape"/>
<feGaussianBlur stdDeviation="2" result="effect1_foregroundBlur_7_1024"/>
</filter>
<filter id="filter2_f_7_1024" x="17.6797" y="0" width="195" height="195" filterUnits="userSpaceOnUse" color-interpolation-filters="sRGB">
<feFlood flood-opacity="0" result="BackgroundImageFix"/>
<feBlend mode="normal" in="SourceGraphic" in2="BackgroundImageFix" result="shape"/>
<feGaussianBlur stdDeviation="1" result="effect1_foregroundBlur_7_1024"/>
</filter>
<filter id="filter3_f_7_1024" x="24.6006" y="0.0239258" width="137.411" height="112.56" filterUnits="userSpaceOnUse" color-interpolation-filters="sRGB">
<feFlood flood-opacity="0" result="BackgroundImageFix"/>
<feBlend mode="normal" in="SourceGraphic" in2="BackgroundImageFix" result="shape"/>
<feGaussianBlur stdDeviation="10" result="effect1_foregroundBlur_7_1024"/>
</filter>
<filter id="filter4_df_7_1024" x="0" y="26" width="391.269" height="266" filterUnits="userSpaceOnUse" color-interpolation-filters="sRGB">
<feFlood flood-opacity="0" result="BackgroundImageFix"/>
<feColorMatrix in="SourceAlpha" type="matrix" values="0 0 0 0 0 0 0 0 0 0 0 0 0 0 0 0 0 0 127 0" result="hardAlpha"/>
<feOffset dx="10" dy="2"/>
<feGaussianBlur stdDeviation="15"/>
<feColorMatrix type="matrix" values="0 0 0 0 0.258824 0 0 0 0 0.627451 0 0 0 0 0.941176 0 0 0 0.596 0"/>
<feBlend mode="normal" in2="BackgroundImageFix" result="effect1_dropShadow_7_1024"/>
<feBlend mode="normal" in="SourceGraphic" in2="effect1_dropShadow_7_1024" result="shape"/>
<feGaussianBlur stdDeviation="2" result="effect2_foregroundBlur_7_1024"/>
</filter>
<filter id="filter5_d_7_1024" x="0" y="26" width="391.269" height="266" filterUnits="userSpaceOnUse" color-interpolation-filters="sRGB">
<feFlood flood-opacity="0" result="BackgroundImageFix"/>
<feColorMatrix in="SourceAlpha" type="matrix" values="0 0 0 0 0 0 0 0 0 0 0 0 0 0 0 0 0 0 127 0" result="hardAlpha"/>
<feOffset dx="10" dy="2"/>
<feGaussianBlur stdDeviation="15"/>
<feColorMatrix type="matrix" values="0 0 0 0 0.501961 0 0 0 0 0.501961 0 0 0 0 0.501961 0 0 0 0.302 0"/>
<feBlend mode="normal" in2="BackgroundImageFix" result="effect1_dropShadow_7_1024"/>
<feBlend mode="normal" in="SourceGraphic" in2="effect1_dropShadow_7_1024" result="shape"/>
</filter>
<linearGradient id="paint0_linear_7_1024" x1="154.164" y1="79.9561" x2="220.206" y2="271.168" gradientUnits="userSpaceOnUse">
<stop stop-color="white" stop-opacity="0.596"/>
<stop offset="1" stop-color="#F7F7F7" stop-opacity="0.204"/>
</linearGradient>
</defs>
</svg>
